<svg xmlns="http://www.w3.org/2000/svg" viewBox="0 0 300 300" xmlns:v="https://vecta.io/nano"><path d="M49 9c1 7 2 32 0 73v39l-7 6-6 7-2 51 6 8c4 6 6 7 10 7h8l4 1 5 15 4 14 27 34 27 33h51l27-34 27-33 3-14 3-14 6-1 10-1c3 0 5-2 9-8l5-8v-24l-2-25-6-7-7-6V5l-10 10v65c2 2 2 40 0 42h-8l-7-2v-19l4-20 2-10 1-16c3-20 6-40 5-43a36 36 0 0 0-5-5c-3-2-3-2-5 16a100 100 0 0 1-3 20c-1 1-5 50-5 67 0 2 0 1-4-3a85 85 0 0 0-33-24l-13-7v-8a110 110 0 0 1-2-13V24l-2-6-7 10 6 46 5 45-10 7-10 6-10-6-10-7v-8l7-46 5-37-5-5-4-5-1 13a50 50 0 0 0 0 15v17l-3 13-12 6a86 86 0 0 0-37 29l-2-25a303 303 0 0 0-4-43l-1-13-3-18V4l-4 5c-4 5-4 5-3 20l3 17 2 14c0 7 2 16 3 20 1 5 3 15 3 24v16l-5 1c-13 2-12 6-10-37V30c0-15 0-15-5-20l-6-7zm76 96l-2 18 13 8 14 8 14-8c14-9 14-8 10-29l-2-15 10 4a80 80 0 0 1 30 26c2 3 2 10 2 19v14l-64 10-31-5-32-5v-15c-1-18 0-21 10-31 8-6 30-20 30-18l-2 18zm-45 40l3 34c3 17 5 16-18 13-13-1-15-2-18-6s-3-5-2-26c0-30 0-30 33-33 0 0 2 6 2 19zm158-15c9 0 10 2 14 6 2 4 3 7 4 26 0 20 0 21-3 25s-5 5-20 6c-9 1-16 2-17 1s0-6 1-14l3-33v-20l5 1 13 2zm-120 34l29 6-18 9-18 8-10-8a62 62 0 0 1-12-10c-2-4-2-10 0-10l30 5zm95 0c0 5-1 6-12 14l-12 10-16-8-18-10c-1 0 4-2 25-6 35-6 33-6 33 0zm-13 22l10-7s-3 29-5 35c0 2-7 10-15 20-24 26-20 24-26 18-5-4-7-5-14-5s-10 0-13 5l-6 4-33-37c-3-4-10-41-7-40l11 8 10 7 13-7 20-9 6-2 19 9 20 9zM86 202l2 10c2 7 4 10 24 34l24 26c2 0 5-8 4-11-2-5 2-8 10-8s12 3 10 8c0 2 0 5 2 7l3 4 20-23c26-30 27-30 28-40 1-7 1-7 7-8h6l-2 12c-3 12-3 12-28 43l-26 31h-40l-23-27-25-31a170 170 0 0 1-9-27l12 1zm30-106a77 77 0 0 0-24 20c-3 5-4 22-1 17l1-6c0-3 3-7 10-14a59 59 0 0 1 12-10c1 0 2 5 2 12 0 13 0 14 15 20l7 4h1l-10-8c-6-3-10-7-10-9l2-16 2-13a25 25 0 0 0-7 3zm60-3l3 15 2 15-12 9-11 8 19-9c7-4 7-4 7-13 0-14 0-15 2-15l12 10c9 9 10 10 10 16 0 5 0 5 1 4 5-7 0-19-12-28-10-7-20-14-20-12zM62 133c-7 0-10 2-10 5h2c3-3 18-4 20-2 2 1 3 1 3-1 0-4-2-4-14-2zm-10 29c-3 0-3 1-4 9 0 4 0 10 2 12 2 4 3 4 17 5 13 2 13 2 13-1a145 145 0 0 1-2-14c-1-10-2-10-5-10a176 176 0 0 1-10-1 51 51 0 0 0-11 0zm18 7c3 1 3 3 3 8s0 6-4 6a43 43 0 0 1-10-2c-5-1-6-2-6-7 0-3 0-5 2-6h15zm155-34c0 2 0 2 2 1 3-2 16 0 20 2 0 0 2 1 2 0 2-1-6-5-15-6-8 0-9 0-9 3zm4 30h-6l-2 13-2 11h14c17-2 20-4 20-16 0-7 0-8-4-9a38 38 0 0 0-20 0zm16 6l2 5c0 4-5 7-14 7-6 0-7 0-6-5 0-4 2-6 4-7 5-3 12-3 14 0zm-144 3l10 7 10-3c7-3 7-4 4-5a54 54 0 0 0-12-1 56 56 0 0 1-14-3l-7-2 10 7zm103-6l-19 3-17 2 21 9 8-6c10-8 12-9 10-9a5 5 0 0 0-3 1zm-73 20l-20 9-8-5-7-5v14c3 10 4 15 7 18l3 3-2-5a56 56 0 0 1-2-11v-6l6 1c6 0 9 0 19-4 20-10 22-10 29-8l15 7a37 37 0 0 0 18 5c10 0 10 0 10 4l-3 10-2 8 4-4c3-3 4-7 6-18l2-15-8 6-8 6-18-9-20-9a100 100 0 0 0-21 8zm-52 20l2 9c1 4 4 7 5 8h4a46 46 0 0 1-5-15c-1-3-2-5-4-5s-2 0-1 2zm137 4c0 4-2 9-3 11-2 3-2 3 0 2 3 0 4-3 6-10 3-10 3-10 0-10 0 0-2 2-3 7zM140 74l-6 44 9 5 8 5 9-5 8-7-5-43-6-42-7-1h-6zm15-20l6 34 3 24c0 3-10 15-13 15l-7-6c-6-5-6-6-5-13l3-18 2-15 2-18 3-17c2-6 5 0 6 13zM64 64l-1 23v19c0 10 1 11 5 11h2v-17a76 76 0 0 0-3-18l-2-10V55c-2-6-2-5-2 9zm173 0a82 82 0 0 1-3 18l-4 18-1 17h10l-1-16-1-35-1-18zm-117-5a134 134 0 0 0-30 20c-6 5-6 6-6 14v10l6-6c6-6 24-18 33-22 3-1 5-3 5-5V60c1-6 1-6-8-2zm0 10c0 1-2 3-5 4a90 90 0 0 0-14 8 20 20 0 0 1-4 3h-3a98 98 0 0 1 25-17c1 0 2 1 1 2zm54-5c0 5 1 9 2 9 7 3 29 17 35 22l7 7v-8c1-8 0-9-5-14a117 117 0 0 0-37-23c-3-1-3-1-2 7zm18 8c8 4 20 13 16 12a132 132 0 0 1-28-15c-2-3 2-2 10 3zm0 0"/></svg>